<svg width="24" height="24" viewBox="0 0 24 24" fill="none" xmlns="http://www.w3.org/2000/svg">
<g clip-path="url(#clip0_4246_27889)">
<path d="M12.0055 0.181885C7.07078 0.181885 5.62756 0.186976 5.34702 0.210248C4.33432 0.29443 3.70416 0.453885 3.01764 0.795703C2.48856 1.05843 2.0713 1.36298 1.65949 1.78988C0.909518 2.56843 0.454986 3.52625 0.290445 4.66479C0.210448 5.21752 0.187176 5.33025 0.182449 8.15352C0.180631 9.09461 0.182449 10.3332 0.182449 11.9944C0.182449 16.9253 0.187903 18.3672 0.211539 18.6472C0.293354 19.6326 0.447895 20.2526 0.775158 20.9308C1.40059 22.229 2.5951 23.2035 4.00233 23.5672C4.48959 23.6926 5.02776 23.7617 5.71864 23.7944C6.01136 23.8072 8.99491 23.8162 11.9803 23.8162C14.9656 23.8162 17.951 23.8126 18.2364 23.7981C19.0364 23.7604 19.501 23.6981 20.0146 23.5653C21.4309 23.1999 22.6036 22.2399 23.2417 20.9235C23.5626 20.2617 23.7254 19.6181 23.799 18.6841C23.815 18.4804 23.8217 15.2337 23.8217 11.9913C23.8217 8.74843 23.8145 5.5077 23.7985 5.30407C23.7239 4.35498 23.5612 3.71679 23.2299 3.04225C22.9581 2.49007 22.6563 2.0777 22.2181 1.65607C21.4362 0.909158 20.4798 0.454612 19.3402 0.290248C18.7881 0.21043 18.6781 0.186794 15.8527 0.181885H12.0055Z" fill="#020617"/>
<path d="M12.0055 0.181885C7.07078 0.181885 5.62756 0.186976 5.34702 0.210248C4.33432 0.29443 3.70416 0.453885 3.01764 0.795703C2.48856 1.05843 2.0713 1.36298 1.65949 1.78988C0.909518 2.56843 0.454986 3.52625 0.290445 4.66479C0.210448 5.21752 0.187176 5.33025 0.182449 8.15352C0.180631 9.09461 0.182449 10.3332 0.182449 11.9944C0.182449 16.9253 0.187903 18.3672 0.211539 18.6472C0.293354 19.6326 0.447895 20.2526 0.775158 20.9308C1.40059 22.229 2.5951 23.2035 4.00233 23.5672C4.48959 23.6926 5.02776 23.7617 5.71864 23.7944C6.01136 23.8072 8.99491 23.8162 11.9803 23.8162C14.9656 23.8162 17.951 23.8126 18.2364 23.7981C19.0364 23.7604 19.501 23.6981 20.0146 23.5653C21.4309 23.1999 22.6036 22.2399 23.2417 20.9235C23.5626 20.2617 23.7254 19.6181 23.799 18.6841C23.815 18.4804 23.8217 15.2337 23.8217 11.9913C23.8217 8.74843 23.8145 5.5077 23.7985 5.30407C23.7239 4.35498 23.5612 3.71679 23.2299 3.04225C22.9581 2.49007 22.6563 2.0777 22.2181 1.65607C21.4362 0.909158 20.4798 0.454612 19.3402 0.290248C18.7881 0.21043 18.6781 0.186794 15.8527 0.181885H12.0055Z" fill="#020617"/>
<path d="M12.0012 3.27271C9.63106 3.27271 9.33362 3.28307 8.40274 3.32543C7.47367 3.36798 6.83951 3.51507 6.28462 3.73089C5.71064 3.9538 5.22374 4.25198 4.73867 4.73725C4.25323 5.22234 3.95505 5.70925 3.73142 6.28307C3.51507 6.83816 3.3678 7.47252 3.32598 8.40125C3.28435 9.33216 3.27344 9.6298 3.27344 12C3.27344 14.3702 3.28398 14.6667 3.32616 15.5976C3.36889 16.5267 3.51598 17.1609 3.73161 17.7158C3.95469 18.2898 4.25286 18.7767 4.73812 19.2618C5.22301 19.7473 5.70991 20.0462 6.28353 20.2691C6.83878 20.4849 7.47313 20.632 8.40201 20.6745C9.33289 20.7169 9.63015 20.7272 12.0001 20.7272C14.3704 20.7272 14.6669 20.7169 15.5978 20.6745C16.5269 20.632 17.1617 20.4849 17.717 20.2691C18.2908 20.0462 18.777 19.7473 19.2619 19.2618C19.7473 18.7767 20.0455 18.2898 20.2691 17.716C20.4836 17.1609 20.6309 16.5265 20.6745 15.5978C20.7164 14.6669 20.7273 14.3702 20.7273 12C20.7273 9.6298 20.7164 9.33234 20.6745 8.40143C20.6309 7.47234 20.4836 6.83816 20.2691 6.28325C20.0455 5.70925 19.7473 5.22234 19.2619 4.73725C18.7764 4.2518 18.291 3.95361 17.7165 3.73089C17.1601 3.51507 16.5256 3.36798 15.5965 3.32543C14.6656 3.28307 14.3693 3.27271 11.9984 3.27271H12.0012ZM11.2183 4.84543C11.4506 4.84507 11.7099 4.84543 12.0012 4.84543C14.3313 4.84543 14.6075 4.8538 15.5276 4.89561C16.3785 4.93452 16.8403 5.07671 17.1479 5.19616C17.5552 5.35434 17.8455 5.54343 18.1508 5.84889C18.4563 6.15434 18.6453 6.44525 18.8039 6.85252C18.9233 7.1598 19.0657 7.62161 19.1044 8.47252C19.1462 9.39252 19.1553 9.66889 19.1553 11.998C19.1553 14.3271 19.1462 14.6034 19.1044 15.5234C19.0655 16.3743 18.9233 16.8362 18.8039 17.1434C18.6457 17.5507 18.4563 17.8407 18.1508 18.146C17.8454 18.4514 17.5554 18.6405 17.1479 18.7987C16.8407 18.9187 16.3785 19.0605 15.5276 19.0994C14.6076 19.1412 14.3313 19.1503 12.0012 19.1503C9.67088 19.1503 9.39471 19.1412 8.47473 19.0994C7.62385 19.0602 7.16205 18.918 6.85424 18.7985C6.44698 18.6403 6.15608 18.4513 5.85063 18.1458C5.54519 17.8403 5.3561 17.5502 5.19756 17.1427C5.07811 16.8354 4.93575 16.3736 4.89702 15.5227C4.85521 14.6027 4.84684 14.3263 4.84684 11.9958C4.84684 9.66525 4.85521 9.39034 4.89702 8.47034C4.93593 7.61943 5.07811 7.15761 5.19756 6.84998C5.35574 6.4427 5.54519 6.1518 5.85063 5.84634C6.15608 5.54089 6.44698 5.3518 6.85424 5.19325C7.16187 5.07325 7.62385 4.93143 8.47473 4.89234C9.2798 4.85598 9.59179 4.84507 11.2183 4.84325V4.84543ZM16.6596 6.29452C16.0814 6.29452 15.6123 6.76307 15.6123 7.34143C15.6123 7.91961 16.0814 8.3887 16.6596 8.3887C17.2377 8.3887 17.7068 7.91961 17.7068 7.34143C17.7068 6.76325 17.2377 6.29416 16.6596 6.29416V6.29452ZM12.0012 7.51816C9.52616 7.51816 7.51949 9.52489 7.51949 12C7.51949 14.4751 9.52616 16.4809 12.0012 16.4809C14.4762 16.4809 16.4821 14.4751 16.4821 12C16.4821 9.52489 14.476 7.51816 12.001 7.51816H12.0012ZM12.0012 9.09089C13.6077 9.09089 14.9102 10.3933 14.9102 12C14.9102 13.6065 13.6077 14.9091 12.0012 14.9091C10.3945 14.9091 9.09217 13.6065 9.09217 12C9.09217 10.3933 10.3945 9.09089 12.0012 9.09089V9.09089Z" fill="#D9F99D"/>
</g>
<defs>
<clipPath id="clip0_4246_27889">
<rect width="24" height="24" fill="white"/>
</clipPath>
</defs>
</svg>
