<svg width="24" height="24" viewBox="0 0 24 24" fill="none" xmlns="http://www.w3.org/2000/svg">
<g clip-path="url(#clip0_4246_27890)">
<path d="M0 1.76041C0 0.815265 0.794438 0.0480957 1.77375 0.0480957H22.2262C23.2059 0.0480957 24 0.815265 24 1.76041V22.2401C24 23.1855 23.2059 23.9521 22.2262 23.9521H1.77375C0.794531 23.9521 0 23.1856 0 22.2403V1.76041Z" fill="#020617"/>
<path d="M7.29338 20.0526V9.29091H3.702V20.0526H7.29338ZM5.49844 7.82184C6.75056 7.82184 7.53009 6.99548 7.53009 5.96275C7.50666 4.90649 6.75056 4.10319 5.52225 4.10319C4.29309 4.10319 3.49031 4.90649 3.49031 5.96266C3.49031 6.99538 4.26956 7.82175 5.47491 7.82175L5.49844 7.82184ZM9.28125 20.0526H12.8723V14.0434C12.8723 13.7222 12.8958 13.4002 12.9907 13.1707C13.2502 12.5279 13.8411 11.8624 14.8334 11.8624C16.1326 11.8624 16.6526 12.8492 16.6526 14.296V20.0526H20.2436V13.8822C20.2436 10.5768 18.4721 9.03861 16.1093 9.03861C14.1722 9.03861 13.3214 10.117 12.8487 10.8515H12.8726V9.29129H9.28144C9.32831 10.3009 9.28125 20.0526 9.28125 20.0526Z" fill="#D9F99D"/>
</g>
<defs>
<clipPath id="clip0_4246_27890">
<rect width="24" height="24" fill="white"/>
</clipPath>
</defs>
</svg>
