<svg width="24" height="24" viewBox="0 0 24 24" fill="none" xmlns="http://www.w3.org/2000/svg">
<path d="M24 3.38886C24 1.51725 22.4828 0 20.6111 0H3.38886C1.51725 0 0 1.51725 0 3.38886V20.6111C0 22.4828 1.51725 24 3.38886 24H20.6111C22.4828 24 24 22.4828 24 20.6111V3.38886ZM19.8828 10.4675C18.3343 10.4848 16.8915 10.0167 15.6246 9.14967V15.2359C15.6246 17.9409 13.773 20.2645 11.1548 20.8713C7.58271 21.6863 4.55883 19.1027 4.17744 16.0163C3.77862 12.9298 5.7471 10.2247 8.7642 9.61785C9.35373 9.4965 10.2405 9.4965 10.6979 9.60054V12.8604C10.5572 12.8258 10.4254 12.7911 10.2867 12.7737C9.10755 12.5656 7.96554 13.1552 7.49736 14.2302C7.02921 15.3054 7.34256 16.5538 8.29623 17.2821C9.09381 17.9063 9.97878 17.9929 10.8804 17.5768C11.7821 17.1781 12.2667 16.4498 12.3707 15.4614C12.388 15.3228 12.3871 15.1666 12.3871 15.0106V3.30618C12.3871 2.97675 12.3897 2.99112 12.7191 2.99112H15.3027C15.4935 2.99112 15.5629 3.01857 15.5802 3.24411C15.7189 5.25552 17.246 6.96852 19.2054 7.22865C19.4135 7.2633 19.6364 7.27704 19.8828 7.29435V10.4675Z" fill="black"/>
</svg>
