<svg width="24" height="24" viewBox="0 0 24 24" fill="none" xmlns="http://www.w3.org/2000/svg">
<path d="M24 3.80888C23.117 4.20049 22.168 4.46517 21.172 4.58421C22.1886 3.97479 22.9693 3.00984 23.3369 1.8601C22.3856 2.42431 21.3318 2.83409 20.2102 3.05497C19.312 2.098 18.0323 1.5 16.6162 1.5C13.8968 1.5 11.6921 3.70459 11.6921 6.42378C11.6921 6.80969 11.7358 7.1855 11.8197 7.54587C7.72742 7.34054 4.09929 5.38026 1.67076 2.40131C1.24692 3.12853 1.0041 3.97436 1.0041 4.87671C1.0041 6.58496 1.87346 8.09208 3.19465 8.97504C2.38745 8.94949 1.62827 8.728 0.964337 8.35921C0.963986 8.37975 0.963986 8.40038 0.963986 8.4211C0.963986 10.8068 2.66125 12.7969 4.91377 13.2492C4.50056 13.3617 4.06558 13.4219 3.61646 13.4219C3.2992 13.4219 2.99072 13.3911 2.69013 13.3336C3.31667 15.2898 5.13508 16.7133 7.28972 16.7531C5.60456 18.0737 3.48144 18.8609 1.17459 18.8609C0.777175 18.8609 0.385208 18.8376 0 18.7921C2.17904 20.1892 4.76726 21.0043 7.5479 21.0043C16.6047 21.0043 21.5572 13.5014 21.5572 6.99474C21.5572 6.78125 21.5525 6.56889 21.543 6.35776C22.505 5.66355 23.3398 4.7963 24 3.80888Z" fill="#020617"/>
</svg>
